#!OML:ASF F:\VICON\USERDATA\INSTALL\rory3\rory3.ASF
:FULLY-SPECIFIED
:DEGREES
2429
root 0.12646 16.0909 -0.102046 -1.44086 0.188717 -1.46552
lowerback 9.45453 0.0995544 0.310503
upperback -1.07772 0.161031 -0.123342
thorax -6.44036 0.0655842 -0.328022
lowerneck -11.6739 -8.02177 -11.6847
upperneck 42.3054 -9.51175 0.994427
head 18.6809 -5.62255 0.698326
rclavicle -1.03306e-014 -4.17448e-015
rhumerus 53.9402 8.11051 -42.3705
rradius 69.8206
rwrist -59.1779
rhand -12.006 -4.59199
rfingers 7.12502
rthumb 14.0512 -34.097
lclavicle -1.03306e-014 -4.17448e-015
lhumerus 53.217 -9.89977 53.414
lradius 70.4857
lwrist 51.9057
lhand -7.9025 35.7061
lfingers 7.12502
lthumb 18.0026 64.8929
rfemur -0.510026 11.2733 19.3447
rtibia 16.7699
rfoot -11.2577 -11.7701
rtoes -7.62813
lfemur 0.0991992 -11.2649 -15.7203
ltibia 14.1191
lfoot -9.13667 9.77007
ltoes -13.5566
2430
root 0.125571 16.0901 -0.102198 -1.4641 0.19285 -1.53977
lowerback 9.50176 0.101914 0.373953
upperback -1.07796 0.173728 -0.0924217
thorax -6.46733 0.0700626 -0.333395
lowerneck -11.6497 -8.02566 -11.7357
upperneck 42.3132 -9.52344 1.03566
head 18.6889 -5.63012 0.724664
rclavicle 1.36618e-014 3.37934e-015
rhumerus 53.9255 8.10602 -42.3605
rradius 69.8251
rwrist -59.1854
rhand -11.9581 -4.62673
rfingers 7.12502
rthumb 14.0974 -34.1285
lclavicle 1.36618e-014 3.37934e-015
lhumerus 53.2159 -9.93382 53.4089
lradius 70.5486
lwrist 52.0511
lhand -8.11875 35.7699
lfingers 7.12502
lthumb 17.7946 64.9758
rfemur -0.484437 11.2811 19.4421
rtibia 16.7683
rfoot -11.2704 -11.7907
rtoes -7.64483
lfemur 0.114542 -11.2692 -15.6369
ltibia 14.1404
lfoot -9.14347 9.73246
ltoes -13.3408
2431
root 0.124514 16.0892 -0.10211 -1.46463 0.21473 -1.46966
lowerback 9.51626 0.104827 0.287479
upperback -1.07986 0.166728 -0.104944
thorax -6.47783 0.0694645 -0.296819
lowerneck -11.6142 -8.02821 -11.731
upperneck 42.2895 -9.52879 1.02743
head 18.6639 -5.63291 0.721228
rclavicle -1.46076e-014 -1.39149e-015
rhumerus 53.9064 8.10123 -42.3719
rradius 69.838
rwrist -59.1601
rhand -11.9703 -4.59474
rfingers 7.12502
rthumb 14.0856 -34.0974
lclavicle -1.46076e-014 -1.39149e-015
lhumerus 53.2285 -9.93548 53.4141
lradius 70.5322
lwrist 52.0578
lhand -8.10943 35.7669
lfingers 7.12502
lthumb 17.8035 64.9719
rfemur -0.484941 11.2628 19.3679
rtibia 16.7672
rfoot -11.2694 -11.7906
rtoes -7.41227
lfemur 0.0995833 -11.2605 -15.7115
ltibia 14.1634
lfoot -9.06778 9.67177
ltoes -13.3273
2432
root 0.125955 16.0893 -0.100965 -1.47421 0.241196 -1.39682
lowerback 9.53037 0.0823167 0.241311
upperback -1.07883 0.129707 -0.130167
thorax -6.48508 0.0524658 -0.291754
lowerneck -11.6099 -7.9918 -11.6589
upperneck 42.2875 -9.46617 0.964053
head 18.643 -5.60542 0.692987
rclavicle -7.1578e-015 -1.59028e-015
rhumerus 53.9253 8.14576 -42.4028
rradius 69.8537
rwrist -59.1425
rhand -12.0975 -4.61205
rfingers 7.12502
rthumb 13.963 -34.1232
lclavicle -7.1578e-015 -1.59028e-015
lhumerus 53.1952 -9.89576 53.3988
lradius 70.5368
lwrist 52.1328
lhand -8.1269 35.7652
lfingers 7.12502
lthumb 17.7867 64.9718
rfemur -0.453195 11.2381 19.2816
rtibia 16.7416
rfoot -11.2478 -11.8053
rtoes -7.63654
lfemur 0.0837447 -11.285 -15.8072
ltibia 14.2046
lfoot -9.0395 9.67383
ltoes -13.4521
2433
root 0.126414 16.0887 -0.0996588 -1.47829 0.256543 -1.43133
lowerback 9.53425 0.0824788 0.301718
upperback -1.06775 0.137023 -0.130071
thorax -6.47538 0.053922 -0.32676
lowerneck -11.6318 -7.99292 -11.6237
upperneck 42.2967 -9.46912 0.949267
head 18.6501 -5.60244 0.678525
rclavicle -1.44958e-014 -9.93923e-016
rhumerus 53.9255 8.10955 -42.3901
rradius 69.873
rwrist -59.2445
rhand -12.2047 -4.71582
rfingers 7.12502
rthumb 13.8597 -34.234
lclavicle -1.44958e-014 -9.93923e-016
lhumerus 53.2205 -9.90233 53.4151
lradius 70.5199
lwrist 52.1462
lhand -8.05894 35.8152
lfingers 7.12502
lthumb 17.8521 65.0158
rfemur -0.426457 11.2214 19.3194
rtibia 16.7176
rfoot -11.2143 -11.8078
rtoes -7.87505
lfemur 0.0809473 -11.2822 -15.7711
ltibia 14.2254
lfoot -9.03596 9.65366
ltoes -13.4456
2434
root 0.12664 16.0887 -0.0977064 -1.48195 0.25442 -1.538
lowerback 9.52798 0.0963887 0.443539
upperback -1.05792 0.173192 -0.114174
thorax -6.46081 0.0669453 -0.395346
lowerneck -11.6377 -8.03306 -11.6527
upperneck 42.3133 -9.53702 0.980318
head 18.6741 -5.6295 0.683039
rclavicle -6.68103e-015 -9.93923e-016
rhumerus 53.8697 8.03351 -42.3988
rradius 69.8798
rwrist -59.2421
rhand -12.1293 -4.77561
rfingers 7.12502
rthumb 13.9324 -34.2888
lclavicle -6.68103e-015 -9.93923e-016
lhumerus 53.2761 -9.96161 53.4099
lradius 70.4369
lwrist 51.9019
lhand -7.83815 35.681
lfingers 7.12502
lthumb 18.0646 64.8621
rfemur -0.402025 11.2068 19.4404
rtibia 16.6918
rfoot -11.1637 -11.8229
rtoes -8.17696
lfemur 0.0877523 -11.2871 -15.6575
ltibia 14.254
lfoot -9.11051 9.65119
ltoes -13.3142
